# xmcd
#
# Track frame offsets:
# 151
# 44824
# 66892
# 91735
# 119030
# 144902
# 168533
# 196920
# 218411
# 238757
#
# Disc length: 3687 seconds
#
# Revision: 0
# Processed by: cddbd v1.5.1PL2 Copyright (c) Steve Scherf et al.
# Submitted via: Audion 3.0.2 (http://www.panic.com/audion/)
#
DISCID=900e650a
DTITLE=Mix - Wellenbrecher
DYEAR=1900
DGENRE=
TTITLE0=tr1
TTITLE1=tr2
TTITLE2=tr3
TTITLE3=tr4
TTITLE4=tr5
TTITLE5=tr6
TTITLE6=tr7
TTITLE7=tr8
TTITLE8=tr9
TTITLE9=tr10
EXTD=
EXTT0=
EXTT1=
EXTT2=
EXTT3=
EXTT4=
EXTT5=
EXTT6=
EXTT7=
EXTT8=
EXTT9=
PLAYORDER=
